<?xml version="1.0" encoding="UTF-8" standalone="no"?>
<svg
   xmlns:dc="http://purl.org/dc/elements/1.1/"
   xmlns:cc="http://creativecommons.org/ns#"
   xmlns:rdf="http://www.w3.org/1999/02/22-rdf-syntax-ns#"
   xmlns:svg="http://www.w3.org/2000/svg"
   xmlns="http://www.w3.org/2000/svg"
   id="svg10"
   xml:space="preserve"
   viewBox="0 0 1024 768"
   y="0px"
   x="0px"
   version="1.1"><metadata
     id="metadata16"><rdf:RDF><cc:Work
         rdf:about=""><dc:format>image/svg+xml</dc:format><dc:type
           rdf:resource="http://purl.org/dc/dcmitype/StillImage" /></cc:Work></rdf:RDF></metadata><defs
     id="defs14" /><g
     transform="matrix(1.3516,0,0,1.3516,-179.99,-148.68)"
     id="logo-group"><path
       stroke-miterlimit="2"
       d="m 369,502.33 q -12.866,0 -23.567,-6.3727 -10.581,-6.3727 -16.713,-17.435 -6.1322,-11.062 -6.1322,-24.409 0,-13.226 6.1322,-24.168 6.1322,-11.062 16.713,-17.435 10.701,-6.493 23.567,-6.493 9.1382,0 15.751,2.4048 6.7334,2.4048 13.587,7.9358 1.4429,1.0822 1.9238,2.2846 0.48097,1.0822 0.48097,2.6453 0,2.4048 -1.8036,3.9679 -1.6834,1.5631 -3.9679,1.5631 -2.2846,0 -4.2084,-1.5631 -4.9298,-4.2084 -9.6192,-6.012 -4.6894,-1.9238 -12.144,-1.9238 -9.3787,0 -17.315,4.9298 -7.8156,4.9298 -12.505,13.467 -4.5691,8.4168 -4.5691,18.397 0,10.1 4.5691,18.517 4.6894,8.4168 12.505,13.347 7.9358,4.9298 17.315,4.9298 11.543,0 22.124,-7.9358 2.0441,-1.4429 3.9679,-1.4429 2.2846,0 3.7274,1.6834 1.5631,1.5631 1.5631,4.2084 0,2.525 -1.9238,4.4489 -12.986,10.461 -29.459,10.461 z"
       style="font-variant-ligatures:none;fill:#ea5153;stroke-width:0;stroke-miterlimit:2"
       id="path11463" /><path
       stroke-miterlimit="2"
       d="m 434.81,501.13 q -5.1703,0 -9.3787,-2.7655 -4.0882,-2.8858 -6.3727,-7.9358 -2.2846,-5.1703 -2.2846,-11.543 v -65.651 q 0,-2.6453 1.6834,-4.3286 1.6834,-1.6834 4.3286,-1.6834 2.6453,0 4.3286,1.6834 1.6834,1.6834 1.6834,4.3286 v 65.651 q 0,4.4489 1.6834,7.3346 1.6834,2.8858 4.3286,2.8858 h 3.006 q 2.4048,0 3.8477,1.6834 1.5631,1.6834 1.5631,4.3286 0,2.6453 -2.2846,4.3286 -2.2846,1.6834 -5.8918,1.6834 z"
       style="font-variant-ligatures:none;fill:#ea5153;stroke-width:0;stroke-miterlimit:2"
       id="path11465" /><path
       stroke-miterlimit="2"
       d="m 505.61,435.96 q 3.7274,1.4429 3.7274,4.6894 0,1.2024 -0.72144,2.8858 l -36.793,82.725 q -1.4429,3.7274 -4.6894,3.7274 -1.2024,0 -2.8858,-0.72144 -3.6072,-1.5631 -3.6072,-4.6894 0,-1.4429 0.72143,-2.8858 l 12.024,-27.054 -27.054,-51.342 q -0.60119,-1.0822 -0.60119,-2.525 0,-1.5631 0.96191,-2.8858 0.96193,-1.3226 2.525,-2.0441 1.0822,-0.48096 2.4048,-0.48096 3.3667,0 5.0501,3.3667 l 22.004,43.767 19.359,-43.647 q 1.5631,-3.487 4.6894,-3.487 1.5631,0 2.8858,0.6012 z"
       style="font-variant-ligatures:none;fill:#ea5153;stroke-width:0;stroke-miterlimit:2"
       id="path11467" /><path
       stroke-miterlimit="2"
       d="m 527.5,501.13 q -2.6453,0 -4.4489,-1.6834 -1.6833,-1.8036 -1.6833,-4.4489 v -53.507 q 0,-2.7655 1.6833,-4.4489 1.8036,-1.6834 4.4489,-1.6834 2.7655,0 4.4489,1.6834 1.6834,1.6834 1.6834,4.4489 v 53.507 q 0,2.6453 -1.6834,4.4489 -1.6833,1.6834 -4.4489,1.6834 z m 0,-76.473 q -3.2465,0 -5.6513,-2.2846 -2.2846,-2.4048 -2.2846,-5.6513 0,-3.2465 2.2846,-5.531 2.4048,-2.4048 5.6513,-2.4048 3.2465,0 5.531,2.4048 2.4048,2.2846 2.4048,5.531 0,3.2465 -2.4048,5.6513 -2.2845,2.2846 -5.531,2.2846 z"
       style="font-variant-ligatures:none;fill:#ea5153;stroke-width:0;stroke-miterlimit:2"
       id="path11469" /><path
       stroke-miterlimit="2"
       d="m 589.27,434.75 q 8.2966,0 14.91,3.6072 6.6132,3.6072 10.341,10.581 3.7274,6.8537 3.7274,16.593 v 29.579 q 0,2.6453 -1.8036,4.4489 -1.6834,1.6834 -4.3286,1.6834 -2.6453,0 -4.4489,-1.6834 -1.6834,-1.8036 -1.6834,-4.4489 v -29.579 q 0,-9.7394 -5.2906,-14.669 -5.1703,-5.0501 -13.828,-5.0501 -5.0501,0 -9.2585,2.0441 -4.0882,2.0441 -6.493,5.531 -2.2846,3.487 -2.2846,7.8156 v 33.908 q 0,2.6453 -1.6834,4.4489 -1.6834,1.6834 -4.4489,1.6834 -2.6453,0 -4.4489,-1.6834 -1.6834,-1.8036 -1.6834,-4.4489 v -53.627 q 0,-2.7655 1.6834,-4.4489 1.8036,-1.6834 4.4489,-1.6834 2.7655,0 4.4489,1.6834 1.6834,1.6834 1.6834,4.4489 v 1.3226 q 3.8477,-3.8477 9.1382,-5.8918 5.2906,-2.1643 11.303,-2.1643 z"
       style="font-variant-ligatures:none;fill:#ea5153;stroke-width:0;stroke-miterlimit:2"
       id="path11471" /><path
       stroke-miterlimit="2"
       d="m 668.35,434.87 q 9.4989,0 16.954,4.3286 7.5751,4.2084 11.784,11.784 4.3286,7.5751 4.3286,17.315 v 25.972 q 0,9.499 -4.2084,17.315 -4.2084,7.8156 -11.904,12.264 -7.5751,4.5691 -17.194,4.5691 -8.6573,0 -16.112,-3.487 -7.4549,-3.3667 -12.505,-9.7394 -1.3227,-1.6834 -1.3227,-3.3667 0,-2.525 2.525,-4.3286 1.6834,-1.0822 3.3667,-1.0822 3.006,0 4.9298,2.525 3.2465,4.2084 8.1763,6.3727 4.9298,2.2846 11.182,2.2846 5.8918,0 10.701,-2.8858 4.8096,-2.7655 7.6953,-8.2966 2.8858,-5.4108 2.8858,-12.986 v -5.89 q -3.7275,6.6132 -9.8597,10.341 -6.1322,3.7274 -13.828,3.7274 -8.8978,0 -15.992,-4.2084 -6.9739,-4.3286 -10.942,-11.904 -3.8477,-7.5751 -3.8477,-17.194 0,-9.7394 4.2084,-17.315 4.2084,-7.5751 11.784,-11.784 7.5751,-4.3286 17.194,-4.3286 z m 0,55.912 q 6.1322,0 10.942,-2.8858 4.9298,-2.8858 7.5751,-7.9358 2.7655,-5.1703 2.7655,-11.663 0,-6.493 -2.7655,-11.663 -2.6453,-5.1703 -7.5751,-8.0561 -4.8096,-2.8858 -10.942,-2.8858 -6.1323,0 -11.062,2.8858 -4.8096,2.8858 -7.5751,8.0561 -2.7655,5.1703 -2.7655,11.663 0,6.493 2.7655,11.663 2.7655,5.0501 7.5751,7.9358 4.9298,2.8858 11.062,2.8858 z"
       style="font-variant-ligatures:none;fill:#ea5153;stroke-width:0;stroke-miterlimit:2"
       id="path11473" /><path
       style="fill:#f86667;stroke-width:0.75"
       d="m 488.6,258.27 c -0.9174,-0.008 -2.015,0.001 -2.4394,0.0221 -0.42409,0.0208 -1.2189,0.0759 -1.7656,0.1226 -0.5467,0.0463 -1.3628,0.13177 -1.814,0.18931 -0.45078,0.0575 -1.1668,0.1618 -1.5913,0.23186 -0.42409,0.0696 -1.1842,0.211 -1.6888,0.31358 -0.50457,0.10258 -1.3207,0.28773 -1.814,0.41158 -0.49289,0.12343 -1.1968,0.31149 -1.5638,0.41742 -0.36696,0.10591 -1.0425,0.31566 -1.5012,0.46578 -0.4587,0.15012 -1.2373,0.42368 -1.7306,0.60757 -0.49289,0.1839 -1.2839,0.49957 -1.7576,0.70181 -0.47372,0.20183 -1.2056,0.52876 -1.6263,0.726 -0.42075,0.19766 -1.1593,0.56754 -1.6409,0.8223 -0.48164,0.25479 -1.1759,0.63635 -1.5429,0.84773 -0.36696,0.21142 -0.90112,0.53001 -1.1872,0.70807 -0.28564,0.17764 -0.8298,0.52917 -1.2093,0.78142 -0.37905,0.25187 -0.94245,0.63884 -1.2518,0.85988 -0.30941,0.22101 -0.81855,0.59839 -1.1318,0.8394 -0.31275,0.2406 -0.8565,0.6722 -1.2076,0.9591 -0.35153,0.28648 -0.98663,0.83025 -1.412,1.2085 -0.42534,0.37781 -1.2251,1.1376 -1.7776,1.6888 -0.5521,0.55086 -1.2723,1.301 -1.6004,1.6672 -0.32777,0.36612 -0.83318,0.9495 -1.1226,1.2964 -0.28939,0.34653 -0.74434,0.91027 -1.0112,1.2523 -0.26646,0.34236 -0.68137,0.89528 -0.92198,1.2289 -0.24019,0.3336 -0.68096,0.97162 -0.97867,1.4178 -0.29774,0.44619 -0.75728,1.1676 -1.0204,1.6034 -0.26354,0.43576 -0.62924,1.0642 -0.8127,1.397 -0.1839,0.33234 -0.4858,0.89527 -0.67136,1.251 -0.18557,0.35528 -0.4904,0.97455 -0.67805,1.3761 -0.18765,0.40115 -0.48247,1.058 -0.65469,1.4595 -0.17264,0.40115 -0.4441,1.0676 -0.60382,1.4804 -0.15929,0.41283 -0.42993,1.1634 -0.60173,1.668 -0.17139,0.50457 -0.43159,1.3302 -0.57838,1.8348 -0.14678,0.50457 -0.36028,1.2944 -0.47413,1.7547 -0.11384,0.46036 -0.2823,1.2018 -0.37404,1.6472 -0.0922,0.44535 -0.2331,1.2039 -0.31359,1.6856 -0.0801,0.48163 -0.1939,1.2552 -0.2527,1.7188 -0.0584,0.46329 -0.14345,1.2798 -0.18848,1.814 -0.0455,0.53376 -0.10425,1.4962 -0.13136,2.1384 -0.0292,0.70181 -0.0375,1.6484 -0.0213,2.3736 0.0154,0.66345 0.0463,1.4987 0.0688,1.8556 0.0229,0.35737 0.0705,0.9687 0.1055,1.3586 0.0354,0.38989 0.11134,1.0842 0.16889,1.5429 0.0571,0.4587 0.1768,1.2656 0.26605,1.7931 0.0888,0.5275 0.23769,1.3168 0.33068,1.7543 0.093,0.43743 0.2527,1.1318 0.35445,1.5429 0.10133,0.41117 0.28773,1.1042 0.41408,1.54 0.12593,0.43576 0.33569,1.1205 0.46621,1.522 0.13052,0.40115 0.35528,1.0487 0.49915,1.4386 0.14386,0.38989 0.3778,0.99915 0.51958,1.354 0.1422,0.35487 0.41992,1.0117 0.61716,1.4595 0.19724,0.44786 0.60465,1.3023 0.9057,1.8986 0.30066,0.59631 0.69431,1.3469 0.87405,1.668 0.17973,0.32109 0.52376,0.912 0.76395,1.3136 0.2402,0.40115 0.7039,1.133 1.0304,1.6263 0.32692,0.49289 0.80355,1.1842 1.0596,1.5362 0.25603,0.35196 0.65677,0.88658 0.8907,1.1884 0.23394,0.30192 0.70014,0.87698 1.0358,1.2785 0.33569,0.40115 0.91028,1.058 1.2772,1.4595 0.36696,0.40115 1.1155,1.1709 1.6634,1.7097 0.54793,0.53918 1.3461,1.2865 1.7739,1.6605 0.42784,0.37404 1.0471,0.89782 1.3761,1.163 0.32901,0.26563 0.85192,0.67387 1.1614,0.90698 0.30941,0.2331 0.89153,0.65677 1.2927,0.94072 0.40157,0.28439 0.834,0.62092 0.96158,0.74811 0.1276,0.12718 0.31233,0.35028 0.41116,0.49623 0.0988,0.14595 0.23519,0.38822 0.30316,0.53834 0.0684,0.15012 0.16471,0.41533 0.21433,0.58964 l 0.0905,0.3165 0.0208,12.155 0.0208,12.155 0.0772,0.2085 c 0.0425,0.11467 0.13469,0.31692 0.20433,0.44911 0.07,0.1326 0.22434,0.34194 0.34319,0.46537 0.11884,0.12385 0.33485,0.30191 0.4808,0.39573 0.14553,0.0942 0.38781,0.2135 0.53876,0.26438 l 0.27397,0.0934 21.258,0.0109 c 18.228,0.009 21.298,0.002 21.542,-0.0488 0.15596,-0.0326 0.41366,-0.12093 0.57171,-0.1964 0.21142,-0.10092 0.37739,-0.22727 0.62175,-0.47289 0.23894,-0.24018 0.3728,-0.417 0.47246,-0.62299 0.0767,-0.15846 0.16555,-0.41158 0.19766,-0.56295 0.0488,-0.23018 0.0584,-1.545 0.0592,-8.0108 8.3e-4,-5.0762 0.0159,-7.8285 0.0438,-8.0062 0.0233,-0.14929 0.0817,-0.39323 0.12927,-0.5421 0.048,-0.14929 0.16096,-0.41032 0.25103,-0.58046 0.0905,-0.17056 0.2552,-0.42368 0.36612,-0.56295 0.11093,-0.1397 0.29316,-0.33069 0.40533,-0.42493 0.11175,-0.0947 0.31317,-0.24186 0.44744,-0.32776 0.13428,-0.0859 0.34778,-0.20224 0.47413,-0.25813 0.12635,-0.0559 0.38197,-0.14136 0.56837,-0.19056 l 0.33819,-0.0888 4.0449,-0.0267 c 3.4528,-0.023 4.1029,-0.0367 4.441,-0.0943 0.21809,-0.0371 0.58171,-0.10758 0.80812,-0.15679 0.22685,-0.0492 0.64885,-0.16513 0.93825,-0.25729 0.2894,-0.0926 0.756,-0.26772 1.0371,-0.38906 0.28106,-0.12135 0.73142,-0.34653 1.0008,-0.5004 0.26939,-0.15388 0.66595,-0.4024 0.8811,-0.55169 0.21517,-0.1497 0.55544,-0.40908 0.75683,-0.57671 0.20099,-0.16722 0.53209,-0.46954 0.73517,-0.67179 0.20308,-0.20183 0.50332,-0.52709 0.66636,-0.72182 0.16347,-0.19516 0.40449,-0.50458 0.53585,-0.68806 0.13135,-0.18347 0.37197,-0.55752 0.53418,-0.83152 0.1622,-0.27397 0.39281,-0.71516 0.51291,-0.97995 0.11967,-0.26522 0.29523,-0.70681 0.38989,-0.9816 0.0947,-0.2748 0.21809,-0.67929 0.27355,-0.89948 0.0559,-0.21975 0.14011,-0.633 0.18682,-0.91822 0.0471,-0.28523 0.10383,-0.8469 0.12552,-1.2481 0.0217,-0.40158 0.04,-2.9578 0.0409,-5.6812 l 7.5e-4,-4.9515 21.194,-0.0117 21.194,-0.0113 0.52125,-0.11634 c 0.2869,-0.0638 0.71849,-0.1814 0.9591,-0.26146 0.24103,-0.0805 0.65052,-0.24811 0.91073,-0.3728 0.26021,-0.12468 0.66345,-0.35153 0.89654,-0.50415 0.23311,-0.15304 0.55503,-0.38531 0.71558,-0.51708 0.16055,-0.13135 0.46079,-0.41491 0.66762,-0.62967 0.20642,-0.21518 0.47996,-0.53209 0.60757,-0.7039 0.12718,-0.17222 0.31858,-0.45369 0.42492,-0.6255 0.10592,-0.17222 0.2673,-0.47246 0.35779,-0.6672 0.0909,-0.19516 0.22476,-0.52333 0.29773,-0.72975 0.073,-0.20641 0.17806,-0.57254 0.23352,-0.81315 0.0554,-0.24102 0.12302,-0.70515 0.15054,-1.0321 0.0392,-0.46204 0.0392,-0.72642 0,-1.1884 -0.0275,-0.32693 -0.0951,-0.79275 -0.15054,-1.0354 -0.0551,-0.24311 -0.1597,-0.61842 -0.23185,-0.834 -0.0722,-0.21601 -0.23143,-0.59923 -0.35403,-0.85155 -0.1226,-0.25229 -0.35487,-0.65594 -0.51624,-0.89655 -0.16139,-0.24103 -0.45287,-0.618 -0.64719,-0.8382 -0.19432,-0.22018 -0.52875,-0.54752 -0.74268,-0.72725 -0.21392,-0.17931 -0.55794,-0.43743 -0.7644,-0.57337 -0.20641,-0.13553 -0.54168,-0.33068 -0.74517,-0.43326 -0.2035,-0.10217 -0.51333,-0.24144 -0.68805,-0.30941 -0.17514,-0.0676 -0.49081,-0.17014 -0.70182,-0.2281 -0.211,-0.0575 -0.53001,-0.13595 -0.7089,-0.17348 l -0.32526,-0.0688 -20.141,-0.0242 -20.141,-0.0238 -0.22935,-0.0709 c -0.12593,-0.0388 -0.38781,-0.15054 -0.58171,-0.24853 -0.25562,-0.12885 -0.43243,-0.25812 -0.64635,-0.47163 -0.1618,-0.1618 -0.35737,-0.40157 -0.43493,-0.53293 -0.0771,-0.13177 -0.18891,-0.36571 -0.2477,-0.52042 l -0.10717,-0.28105 -0.0296,-3.4194 c -0.0163,-1.8807 -0.0508,-3.776 -0.0763,-4.2117 -0.0254,-0.43577 -0.065,-1.027 -0.088,-1.3136 -0.023,-0.2869 -0.0792,-0.8682 -0.12552,-1.2927 -0.0463,-0.42451 -0.13177,-1.1 -0.19015,-1.5012 -0.058,-0.40158 -0.17013,-1.0917 -0.24853,-1.5341 -0.0784,-0.44202 -0.2281,-1.1926 -0.33235,-1.668 -0.10467,-0.47496 -0.26563,-1.1547 -0.35778,-1.51 -0.0922,-0.35571 -0.26146,-0.97493 -0.37614,-1.3761 -0.11509,-0.40158 -0.3557,-1.1705 -0.53543,-1.7097 -0.17972,-0.53919 -0.45286,-1.3085 -0.60757,-1.7097 -0.15429,-0.40158 -0.40115,-1.02 -0.54877,-1.3744 -0.14762,-0.35445 -0.40991,-0.9549 -0.58255,-1.3344 -0.17305,-0.37947 -0.51791,-1.0934 -0.76642,-1.5862 -0.24853,-0.49289 -0.61383,-1.1876 -0.81188,-1.5429 -0.19807,-0.3557 -0.55085,-0.96533 -0.78397,-1.3552 -0.23311,-0.3899 -0.69931,-1.1254 -1.0363,-1.6342 -0.33694,-0.50874 -0.8553,-1.2593 -1.1522,-1.668 -0.29648,-0.40866 -0.77017,-1.0337 -1.0525,-1.389 -0.2819,-0.35571 -0.70182,-0.8715 -0.9324,-1.1468 -0.23102,-0.27522 -0.67304,-0.78188 -0.98243,-1.1259 -0.30941,-0.34403 -0.9195,-0.98873 -1.3557,-1.4332 -0.43618,-0.44411 -1.1121,-1.1018 -1.502,-1.4612 -0.3899,-0.35946 -0.92445,-0.84023 -1.1884,-1.0692 -0.26355,-0.22852 -0.84525,-0.7089 -1.2927,-1.0671 -0.44703,-0.3582 -1.1414,-0.8907 -1.5429,-1.1834 -0.40116,-0.29273 -1.1614,-0.81772 -1.6889,-1.1668 -0.5275,-0.34862 -1.2593,-0.8136 -1.6263,-1.0329 -0.36696,-0.21935 -0.95783,-0.56087 -1.3136,-0.75893 -0.35528,-0.19807 -1.0717,-0.57463 -1.5913,-0.83647 -0.51958,-0.26188 -1.3077,-0.63884 -1.7514,-0.83693 -0.44368,-0.19849 -1.1472,-0.49789 -1.5633,-0.66595 -0.41616,-0.16763 -1.148,-0.44493 -1.6263,-0.6159 -0.47829,-0.17097 -1.1414,-0.39615 -1.4741,-0.5004 -0.33235,-0.10383 -0.86738,-0.26438 -1.1884,-0.35654 -0.32109,-0.0917 -0.96825,-0.26354 -1.4386,-0.38113 -0.46996,-0.11759 -1.2022,-0.28648 -1.6263,-0.3753 -0.42451,-0.0884 -1.166,-0.22685 -1.6472,-0.30775 -0.48164,-0.0805 -1.2414,-0.19307 -1.6888,-0.2502 -0.44702,-0.0567 -1.1321,-0.13261 -1.522,-0.16805 -0.3899,-0.0359 -0.99038,-0.0842 -1.3344,-0.10842 -0.34403,-0.0238 -1.3761,-0.0509 -2.2935,-0.0596 z m 13.156,25.42 c 0.0575,-0.002 0.17389,0.0154 0.25937,0.0388 0.0851,0.0238 0.21267,0.0917 0.28356,0.15137 0.0705,0.0592 0.17223,0.19474 0.2256,0.30066 0.0534,0.10592 0.2331,0.52083 0.39949,0.92243 0.16638,0.40115 0.45787,1.1238 0.6476,1.6054 0.18974,0.48164 0.46913,1.2193 0.62091,1.6396 0.15138,0.42034 0.35946,1.0462 0.46245,1.3907 0.103,0.34486 0.22435,0.81105 0.27022,1.0358 0.0459,0.22476 0.0834,0.53334 0.0834,0.68554 0,0.15221 -0.0296,0.42118 -0.0659,0.59798 -0.0367,0.17681 -0.12218,0.45619 -0.19015,0.6205 -0.0684,0.16429 -0.20016,0.40824 -0.29274,0.5421 -0.0926,0.13386 -0.25562,0.33402 -0.36236,0.44493 -0.10676,0.11093 -0.30942,0.28482 -0.45037,0.38656 -0.14135,0.10133 -0.37696,0.23894 -0.52375,0.30567 -0.14678,0.0667 -0.38698,0.1522 -0.53334,0.19015 -0.14637,0.038 -0.42701,0.0792 -0.62299,0.0917 -0.19641,0.0125 -0.4954,0.001 -0.6647,-0.0254 -0.16931,-0.0263 -0.46955,-0.10884 -0.6672,-0.18306 -0.19765,-0.0746 -0.47204,-0.20933 -0.60965,-0.29982 -0.13761,-0.0905 -0.3728,-0.2869 -0.52292,-0.4366 -0.1497,-0.15012 -0.34611,-0.3853 -0.4366,-0.52291 -0.0905,-0.13761 -0.22392,-0.4095 -0.29649,-0.60465 -0.0726,-0.19516 -0.15554,-0.49498 -0.18347,-0.66637 -0.0309,-0.1864 -0.0413,-0.44702 -0.0254,-0.64635 0.0142,-0.1839 0.0821,-0.55586 0.15053,-0.82605 0.0684,-0.27063 0.23061,-0.8148 0.35988,-1.2093 0.12927,-0.3949 0.34527,-1.0137 0.47997,-1.3753 0.13469,-0.36153 0.41116,-1.0746 0.61507,-1.5846 0.2035,-0.50999 0.48831,-1.2088 0.63259,-1.5529 0.19724,-0.47079 0.29982,-0.66178 0.41575,-0.77355 0.0842,-0.0817 0.21726,-0.16888 0.29524,-0.1939 0.0784,-0.025 0.18931,-0.0471 0.24644,-0.0492 z m -19.016,9.9218 c 0.0575,-8.3e-4 0.17389,0.0179 0.25937,0.0413 0.0851,0.0238 0.21267,0.0917 0.28356,0.15137 0.0705,0.0592 0.17222,0.19474 0.2256,0.30066 0.0534,0.10592 0.21393,0.47413 0.35654,0.81818 0.14261,0.34402 0.40574,0.9912 0.58422,1.4386 0.17847,0.44702 0.46578,1.1976 0.63801,1.668 0.17263,0.46996 0.38989,1.0988 0.4833,1.397 0.093,0.29815 0.22101,0.73892 0.28439,0.97995 0.0992,0.37738 0.11468,0.51541 0.11301,1.0008 -0.002,0.49665 -0.015,0.60214 -0.11342,0.89655 -0.0613,0.18348 -0.18765,0.46954 -0.28022,0.63592 -0.0926,0.16638 -0.28399,0.42617 -0.42577,0.57713 -0.14136,0.15137 -0.37363,0.3582 -0.51582,0.45953 -0.1422,0.10175 -0.37864,0.23894 -0.52542,0.30566 -0.14679,0.0667 -0.38698,0.15221 -0.53334,0.19016 -0.14637,0.0379 -0.42701,0.0792 -0.623,0.0917 -0.19641,0.0125 -0.49539,0.001 -0.66469,-0.0254 -0.16931,-0.0263 -0.46955,-0.10884 -0.6672,-0.18306 -0.19766,-0.0742 -0.49581,-0.22643 -0.66303,-0.3386 -0.1668,-0.11176 -0.41409,-0.32193 -0.54961,-0.46704 -0.13552,-0.14512 -0.32443,-0.39449 -0.41951,-0.5542 -0.0951,-0.16012 -0.21975,-0.42617 -0.27688,-0.5913 -0.0575,-0.16514 -0.12552,-0.46621 -0.15137,-0.66929 -0.0354,-0.28105 -0.0342,-0.45328 0.005,-0.72391 0.0279,-0.19474 0.0988,-0.53751 0.1568,-0.76103 0.058,-0.22351 0.20058,-0.69764 0.3165,-1.0529 0.11634,-0.35571 0.32901,-0.96533 0.47246,-1.3552 0.14344,-0.3899 0.42951,-1.1313 0.63551,-1.6476 0.20641,-0.51583 0.49331,-1.2189 0.638,-1.5621 0.15596,-0.36947 0.31526,-0.68013 0.39115,-0.76268 0.0705,-0.0763 0.20308,-0.16513 0.29482,-0.19765 0.0917,-0.0325 0.21392,-0.0596 0.27105,-0.0605 z m 30.652,7.2174 c 0.17347,-0.003 0.52083,0.0146 0.77145,0.0388 0.2502,0.0246 0.6697,0.0917 0.93157,0.1497 0.26188,0.058 0.63718,0.16097 0.834,0.22935 0.19683,0.068 0.58297,0.23352 0.85815,0.36779 0.27522,0.13428 0.66345,0.35362 0.86318,0.48748 0.19933,0.13385 0.53251,0.38989 0.74017,0.56837 0.20808,0.17889 0.52876,0.49789 0.71307,0.7089 0.18474,0.21141 0.45496,0.56211 0.60132,0.78022 0.14595,0.21768 0.36863,0.60257 0.49456,0.85485 0.12552,0.25229 0.29607,0.6572 0.37822,0.89985 0.0826,0.24269 0.18682,0.61799 0.23185,0.834 0.045,0.21601 0.10133,0.5617 0.12469,0.76815 0.0238,0.20642 0.0434,0.58547 0.0434,0.84233 4.1e-4,0.25687 -0.0275,0.68096 -0.0617,0.94245 -0.0346,0.26145 -0.10717,0.65177 -0.16222,0.86737 -0.0546,0.21559 -0.16972,0.57963 -0.25562,0.80895 -0.0859,0.22935 -0.21976,0.54377 -0.29774,0.69931 -0.0776,0.15512 -0.2185,0.40783 -0.31274,0.5617 -0.0942,0.15387 -0.27522,0.42033 -0.40241,0.59256 -0.12719,0.1718 -0.40157,0.48872 -0.60965,0.70431 -0.20809,0.21559 -0.52876,0.51291 -0.71224,0.66053 -0.18348,0.14803 -0.50249,0.37405 -0.7089,0.5029 -0.20642,0.12885 -0.56295,0.32234 -0.7923,0.43035 -0.22935,0.108 -0.62342,0.26271 -0.8757,0.3436 -0.25228,0.0809 -0.59923,0.17597 -0.77145,0.21101 -0.1718,0.0355 -0.47163,0.0838 -0.66595,0.108 -0.19432,0.0242 -0.57963,0.0438 -0.85612,0.0438 -0.27648,0 -0.66178,-0.0196 -0.85613,-0.0438 -0.19431,-0.0242 -0.52792,-0.0801 -0.74143,-0.12427 -0.21392,-0.0442 -0.58254,-0.14553 -0.81937,-0.22476 -0.23727,-0.0792 -0.6255,-0.23728 -0.8628,-0.35111 -0.23727,-0.11385 -0.60048,-0.31818 -0.80693,-0.4537 -0.20641,-0.13595 -0.48789,-0.33736 -0.62549,-0.44744 -0.13762,-0.11051 -0.36029,-0.30608 -0.49498,-0.43494 -0.13428,-0.12885 -0.38656,-0.40323 -0.56003,-0.60965 -0.17348,-0.20641 -0.41575,-0.52959 -0.53877,-0.71765 -0.12301,-0.18848 -0.3336,-0.57338 -0.46829,-0.85485 -0.13427,-0.2819 -0.30233,-0.68763 -0.37321,-0.90195 -0.0713,-0.21434 -0.16638,-0.57087 -0.21226,-0.7923 -0.0454,-0.22143 -0.1055,-0.66095 -0.13302,-0.9762 -0.0384,-0.43952 -0.0384,-0.70515 -0.002,-1.1363 0.0267,-0.30983 0.0976,-0.78187 0.15763,-1.0496 0.06,-0.26771 0.16514,-0.6476 0.2331,-0.84443 0.0684,-0.19682 0.22518,-0.5667 0.34903,-0.82192 0.12343,-0.2552 0.3557,-0.65886 0.51583,-0.89655 0.15971,-0.23769 0.44118,-0.60131 0.62467,-0.80775 0.18389,-0.20642 0.4712,-0.49289 0.63884,-0.63718 0.16763,-0.14386 0.47371,-0.38281 0.68013,-0.53084 0.20641,-0.14845 0.61924,-0.39156 0.9174,-0.54044 0.29815,-0.14845 0.74392,-0.3361 0.99037,-0.41658 0.24645,-0.0805 0.63301,-0.1839 0.85943,-0.22977 0.22601,-0.0463 0.56836,-0.10008 0.76102,-0.12051 0.19224,-0.02 0.49206,-0.0388 0.66595,-0.0421 z m -19.6,11.255 c 0.10342,4.2e-4 0.26522,0.0363 0.35945,0.0792 0.0947,0.043 0.22352,0.14261 0.2869,0.22143 0.063,0.0792 0.30066,0.59172 0.52834,1.1392 0.22726,0.54752 0.57963,1.4278 0.78232,1.9562 0.20308,0.52834 0.4487,1.186 0.54585,1.4612 0.0976,0.27522 0.25979,0.76312 0.36029,1.0842 0.10091,0.32109 0.23143,0.81818 0.29065,1.105 0.0851,0.412 0.10258,0.59256 0.0847,0.8607 -0.0125,0.1864 -0.0534,0.4587 -0.0909,0.60465 -0.038,0.14595 -0.13886,0.41533 -0.22518,0.59881 -0.0863,0.18348 -0.26188,0.46496 -0.39073,0.6255 -0.12885,0.16055 -0.32901,0.36697 -0.44494,0.4587 -0.11592,0.0917 -0.32734,0.23769 -0.47037,0.32443 -0.14262,0.0867 -0.4095,0.20516 -0.59298,0.26312 -0.18348,0.058 -0.48288,0.12386 -0.66511,0.14679 -0.2281,0.0288 -0.44744,0.0275 -0.70515,-0.005 -0.20558,-0.0251 -0.48872,-0.0838 -0.62842,-0.13052 -0.14011,-0.0471 -0.37655,-0.14971 -0.52584,-0.22768 -0.14887,-0.0784 -0.37822,-0.22685 -0.50957,-0.32985 -0.13136,-0.103 -0.34111,-0.31191 -0.46662,-0.46371 -0.12552,-0.1522 -0.29315,-0.40115 -0.3728,-0.55293 -0.0797,-0.15221 -0.18848,-0.41742 -0.24228,-0.58923 -0.0826,-0.26479 -0.0972,-0.39948 -0.0959,-0.8757 0.001,-0.47913 0.0188,-0.62841 0.11676,-1.0008 0.0638,-0.24102 0.19182,-0.68179 0.2844,-0.97995 0.0926,-0.29815 0.34319,-1.0112 0.55711,-1.5846 0.2135,-0.57337 0.54794,-1.4366 0.74268,-1.9182 0.19516,-0.48164 0.44994,-1.0984 0.5667,-1.3703 0.11676,-0.27188 0.24978,-0.54669 0.29524,-0.61048 0.0455,-0.0638 0.16263,-0.15554 0.2602,-0.20391 0.10259,-0.0509 0.25688,-0.0876 0.3653,-0.0872 z m 19.912,-7.8518 c -0.16054,-0.01 -0.44619,-0.003 -0.63467,0.015 -0.18849,0.0179 -0.48872,0.0726 -0.6672,0.12135 -0.17848,0.0488 -0.49332,0.16889 -0.69973,0.2673 -0.20642,0.098 -0.52917,0.29441 -0.71682,0.4366 -0.18807,0.1422 -0.44285,0.37488 -0.5667,0.5175 -0.12343,0.14261 -0.28189,0.34361 -0.35111,0.44702 -0.0696,0.103 -0.19224,0.31901 -0.27231,0.47955 -0.0801,0.16055 -0.18431,0.41367 -0.23226,0.56295 -0.0475,0.14887 -0.10509,0.37405 -0.12802,0.5004 -0.0229,0.12594 -0.0534,0.35112 -0.0671,0.5004 -0.0142,0.14887 -0.005,0.44911 0.0192,0.6672 0.0246,0.21768 0.0759,0.50874 0.11343,0.64635 0.0375,0.13761 0.1276,0.39198 0.20016,0.56504 0.0721,0.17347 0.21642,0.44661 0.32025,0.60757 0.10425,0.16054 0.30692,0.41783 0.45079,0.57171 0.14386,0.15387 0.38614,0.37321 0.53751,0.48747 0.15178,0.11425 0.41699,0.28064 0.5888,0.37029 0.17222,0.0892 0.46329,0.20976 0.64718,0.2673 0.18431,0.0575 0.49248,0.12802 0.68513,0.15596 0.21267,0.0313 0.51542,0.0413 0.77063,0.0258 0.23101,-0.0142 0.5788,-0.0642 0.77272,-0.11176 0.19391,-0.0471 0.52875,-0.1693 0.74435,-0.27147 0.21558,-0.10216 0.50707,-0.26813 0.64801,-0.36946 0.14095,-0.10091 0.39866,-0.3311 0.57213,-0.51125 0.17347,-0.18014 0.3728,-0.4124 0.44285,-0.51541 0.0697,-0.10342 0.19307,-0.319 0.27355,-0.47955 0.0805,-0.16055 0.19391,-0.44285 0.25229,-0.62717 0.058,-0.18431 0.12593,-0.48121 0.15095,-0.65969 0.0246,-0.17848 0.0451,-0.44202 0.0451,-0.58546 0,-0.14304 -0.03,-0.43743 -0.0668,-0.65344 -0.0367,-0.21642 -0.1276,-0.55712 -0.20266,-0.75772 -0.0746,-0.20058 -0.22684,-0.51542 -0.33818,-0.69931 -0.11134,-0.18432 -0.32526,-0.46955 -0.47497,-0.63384 -0.15012,-0.1643 -0.41408,-0.40366 -0.58672,-0.53168 -0.17263,-0.12801 -0.45411,-0.30149 -0.6255,-0.3853 -0.17138,-0.0842 -0.43326,-0.19057 -0.58254,-0.23644 -0.14887,-0.0463 -0.37405,-0.10216 -0.50041,-0.12468 -0.12593,-0.0229 -0.3607,-0.0492 -0.52125,-0.0592 z"
       id="icon" /></g></svg>