<?xml version="1.0" encoding="UTF-8" standalone="no"?>
<svg
   xmlns:dc="http://purl.org/dc/elements/1.1/"
   xmlns:cc="http://creativecommons.org/ns#"
   xmlns:rdf="http://www.w3.org/1999/02/22-rdf-syntax-ns#"
   xmlns:svg="http://www.w3.org/2000/svg"
   xmlns="http://www.w3.org/2000/svg"
   xmlns:xlink="http://www.w3.org/1999/xlink"
   id="svg7"
   xml:space="preserve"
   viewBox="0 0 1024 1024"
   y="0px"
   x="0px"
   version="1.1"><metadata
     id="metadata13"><rdf:RDF><cc:Work
         rdf:about=""><dc:format>image/svg+xml</dc:format><dc:type
           rdf:resource="http://purl.org/dc/dcmitype/StillImage" /></cc:Work></rdf:RDF></metadata><defs
     id="defs11" /><g
     id="g3"
     transform="matrix(1.5,0,0,1.5,512,512)"><path
       style="fill:#f86667"
       d="m 152.4,-201.9 c 46.6,26 86.9,68.5 97.2,116.9 10.4,48.3 -9.3,102.5 -32.2,150.3 -22.9,47.8 -49,89.1 -85.8,121.8 -36.8,32.8 -84.2,56.8 -135.5,62.2 -51.4,5.4 -106.6,-7.9 -148.6,-38.9 -42,-31 -70.8,-79.8 -87.5,-132.2 -16.8,-52.4 -21.5,-108.6 -2.2,-153.4 19.4,-44.8 62.9,-78.2 107.3,-105 44.4,-26.7 89.6,-46.8 138.7,-52 49.1,-5.3 102,4.2 148.6,30.3 z"
       id="path" /></g><animate
     fill="freeze"
     values="M206.8,-73.4C230.5,5.5,186.1,100.2,115.9,148.7C45.7,197.1,-50.4,199.3,-120.9,151.5C-191.4,103.8,-236.5,6.2,-212.1,-73.7C-187.7,-153.6,-93.8,-215.8,-1.1,-215.5C91.6,-215.1,183.2,-152.2,206.8,-73.4Z;    M182.4,-49.1C211.4,30,192.7,134.7,130.2,180.4C67.8,226,-38.4,212.5,-103.7,160.8C-169,109.1,-193.4,19.2,-169.3,-53.2C-145.2,-125.5,-72.6,-180.3,2.1,-180.9C76.7,-181.6,153.4,-128.2,182.4,-49.1Z;       M206.5,-62.1C234.2,18.2,200.3,123.6,127.4,176.9C54.5,230.3,-57.4,231.6,-130,178.9C-202.6,126.2,-235.9,19.4,-207.6,-61.6C-179.4,-142.6,-89.7,-197.8,-0.2,-197.8C89.4,-197.7,178.8,-142.4,206.5,-62.1Z;    M182.7,-58.2C208.7,20.8,182.5,118,115.8,168.8C49,219.5,-58.4,223.8,-119.6,176.5C-180.9,129.2,-196,30.3,-168.4,-50.9C-140.8,-132.1,-70.4,-195.5,4,-196.8C78.3,-198.1,156.6,-137.2,182.7,-58.2Z;    M205.7,-67.2C231.4,12.1,192.7,112.1,125.9,156.6C59.2,201.2,-35.7,190.4,-103.3,141.4C-171,92.4,-211.5,5.3,-189.8,-68.7C-168,-142.6,-84,-203.3,3,-204.3C90,-205.3,180.1,-146.5,205.7,-67.2Z;      M206.8,-73.4C230.5,5.5,186.1,100.2,115.9,148.7C45.7,197.1,-50.4,199.3,-120.9,151.5C-191.4,103.8,-236.5,6.2,-212.1,-73.7C-187.7,-153.6,-93.8,-215.8,-1.1,-215.5C91.6,-215.1,183.2,-152.2,206.8,-73.4Z"
     keySplines="0.9 0.1 0.1 0.9;0.9 0.1 0.1 0.9;0.9 0.1 0.1 0.9;0.9 0.1 0.1 0.9;0.9 0.1 0.1 0.9"
     calcMode="spline"
     keyTimes="0; 0.2; 0.4; 0.6; 0.8; 1"
     attributeName="d"
     repeatCount="indefinite"
     dur="20s"
     attributeType="XML"
     xlink:href="#path" /><path
     id="path5"
     transform="translate(153.6 243.2) scale(0.7)"
     fill="#fcfcfc"
     d="m480.38 200.38c-1.24-0.01-2.72 0-3.3 0.03-0.57 0.03-1.65 0.1-2.38 0.17-0.74 0.06-1.85 0.18-2.46 0.25-0.61 0.08-1.57 0.22-2.15 0.32-0.57 0.09-1.6 0.28-2.28 0.42s-1.78 0.39-2.45 0.56c-0.67 0.16-1.62 0.42-2.11 0.56-0.5 0.14-1.41 0.43-2.03 0.63-0.62 0.21-1.68 0.57-2.34 0.82-0.67 0.25-1.74 0.68-2.38 0.95s-1.63 0.72-2.2 0.98c-0.56 0.27-1.56 0.77-2.21 1.11-0.66 0.35-1.59 0.86-2.09 1.15s-1.22 0.72-1.6 0.96c-0.39 0.24-1.13 0.71-1.64 1.05s-1.27 0.87-1.69 1.16c-0.42 0.3-1.11 0.81-1.53 1.14-0.42 0.32-1.16 0.91-1.63 1.3-0.48 0.38-1.34 1.12-1.91 1.63s-1.66 1.54-2.4 2.28c-0.75 0.75-1.72 1.76-2.17 2.26-0.44 0.49-1.12 1.28-1.51 1.75-0.4 0.47-1.01 1.23-1.37 1.69s-0.92 1.21-1.25 1.66c-0.32 0.45-0.92 1.31-1.32 1.92-0.4 0.6-1.02 1.57-1.38 2.16-0.35 0.59-0.85 1.44-1.1 1.89-0.24 0.45-0.65 1.21-0.9 1.69-0.26 0.48-0.67 1.32-0.92 1.86s-0.65 1.43-0.89 1.98c-0.23 0.54-0.6 1.44-0.81 2-0.22 0.55-0.58 1.57-0.81 2.25-0.24 0.68-0.59 1.8-0.79 2.48-0.19 0.68-0.48 1.75-0.64 2.37-0.15 0.62-0.38 1.63-0.5 2.23-0.13 0.6-0.32 1.63-0.43 2.28-0.1 0.65-0.26 1.69-0.34 2.32-0.08 0.62-0.19 1.73-0.25 2.45s-0.14 2.02-0.18 2.89c-0.04 0.95-0.05 2.23-0.03 3.21 0.02 0.9 0.06 2.02 0.09 2.51 0.03 0.48 0.1 1.31 0.15 1.83 0.04 0.53 0.15 1.47 0.22 2.09 0.08 0.62 0.24 1.71 0.36 2.42s0.33 1.78 0.45 2.37c0.13 0.59 0.34 1.53 0.48 2.09 0.14 0.55 0.39 1.49 0.56 2.08s0.45 1.51 0.63 2.06c0.18 0.54 0.48 1.41 0.67 1.94 0.2 0.53 0.52 1.35 0.71 1.83s0.57 1.37 0.83 1.97c0.27 0.61 0.82 1.76 1.22 2.57 0.41 0.81 0.94 1.82 1.19 2.25 0.24 0.44 0.7 1.24 1.03 1.78 0.32 0.54 0.95 1.53 1.39 2.2 0.44 0.66 1.09 1.6 1.43 2.07 0.35 0.48 0.89 1.2 1.21 1.61s0.94 1.19 1.4 1.73c0.45 0.54 1.23 1.43 1.72 1.97 0.5 0.54 1.51 1.58 2.25 2.31s1.82 1.74 2.4 2.25c0.58 0.5 1.42 1.21 1.86 1.57s1.15 0.91 1.57 1.22c0.42 0.32 1.2 0.89 1.75 1.28 0.54 0.38 1.12 0.83 1.3 1.01 0.17 0.17 0.42 0.47 0.55 0.67 0.14 0.19 0.32 0.52 0.41 0.72 0.09 0.21 0.22 0.57 0.29 0.8l0.12 0.43 0.03 16.43 0.03 16.43 0.1 0.28c0.06 0.15 0.19 0.43 0.28 0.6 0.1 0.18 0.3 0.47 0.46 0.63 0.16 0.17 0.46 0.41 0.65 0.54 0.2 0.13 0.53 0.29 0.73 0.36l0.37 0.12 28.73 0.01c24.64 0.02 28.79 0.01 29.12-0.06 0.21-0.05 0.56-0.17 0.77-0.27 0.29-0.13 0.51-0.3 0.84-0.64 0.32-0.32 0.51-0.56 0.64-0.84 0.1-0.21 0.22-0.56 0.27-0.76 0.06-0.31 0.08-2.09 0.08-10.83 0-6.86 0.02-10.58 0.06-10.82 0.03-0.2 0.11-0.53 0.17-0.73s0.22-0.55 0.34-0.78 0.35-0.58 0.5-0.77c0.15-0.18 0.39-0.44 0.54-0.57s0.43-0.32 0.61-0.44 0.47-0.28 0.64-0.35c0.17-0.08 0.51-0.19 0.77-0.26l0.45-0.12 5.47-0.03c4.67-0.04 5.55-0.05 6-0.13 0.3-0.05 0.79-0.15 1.1-0.21 0.3-0.07 0.87-0.23 1.26-0.35 0.39-0.13 1.02-0.36 1.4-0.53 0.38-0.16 0.99-0.47 1.36-0.67 0.36-0.21 0.9-0.55 1.19-0.75s0.75-0.55 1.02-0.78c0.27-0.22 0.72-0.63 0.99-0.91 0.28-0.27 0.68-0.71 0.9-0.97 0.23-0.27 0.55-0.69 0.73-0.93 0.18-0.25 0.5-0.76 0.72-1.13s0.53-0.96 0.7-1.32c0.16-0.36 0.4-0.96 0.52-1.33 0.13-0.37 0.3-0.92 0.37-1.21 0.08-0.3 0.19-0.86 0.25-1.24 0.07-0.39 0.14-1.15 0.17-1.69s0.06-4 0.06-7.68v-6.69l28.65-0.02 28.64-0.01 0.7-0.16c0.39-0.08 0.98-0.24 1.3-0.35 0.33-0.11 0.88-0.34 1.23-0.51 0.35-0.16 0.9-0.47 1.21-0.68 0.32-0.2 0.75-0.52 0.97-0.7 0.22-0.17 0.62-0.56 0.9-0.85s0.65-0.71 0.82-0.95c0.18-0.23 0.43-0.61 0.58-0.84 0.14-0.24 0.36-0.64 0.48-0.9 0.13-0.27 0.31-0.71 0.41-0.99 0.09-0.28 0.23-0.78 0.31-1.1 0.07-0.33 0.17-0.95 0.2-1.4 0.06-0.62 0.06-0.98 0-1.6-0.03-0.44-0.13-1.07-0.2-1.4s-0.22-0.84-0.31-1.13c-0.1-0.29-0.32-0.81-0.48-1.15-0.17-0.34-0.48-0.89-0.7-1.21-0.22-0.33-0.61-0.84-0.87-1.13-0.27-0.3-0.72-0.74-1.01-0.99-0.29-0.24-0.75-0.59-1.03-0.77-0.28-0.19-0.73-0.45-1.01-0.59-0.27-0.13-0.69-0.32-0.93-0.42-0.23-0.09-0.66-0.22-0.95-0.3-0.28-0.08-0.71-0.19-0.95-0.24l-0.44-0.09-27.23-0.03-27.22-0.04-0.31-0.09c-0.17-0.05-0.52-0.2-0.78-0.34-0.35-0.17-0.59-0.35-0.88-0.64-0.22-0.21-0.48-0.54-0.59-0.71-0.1-0.18-0.25-0.5-0.33-0.71l-0.15-0.38-0.04-4.62c-0.02-2.54-0.06-5.1-0.1-5.69-0.03-0.59-0.09-1.39-0.12-1.78s-0.11-1.17-0.17-1.74c-0.06-0.58-0.17-1.49-0.25-2.03-0.08-0.55-0.23-1.48-0.34-2.08s-0.31-1.61-0.45-2.25-0.36-1.56-0.48-2.04c-0.13-0.48-0.36-1.32-0.51-1.86-0.16-0.54-0.48-1.58-0.73-2.31-0.24-0.73-0.61-1.77-0.82-2.31-0.2-0.55-0.54-1.38-0.74-1.86s-0.55-1.29-0.79-1.81c-0.23-0.51-0.69-1.47-1.03-2.14-0.34-0.66-0.83-1.6-1.1-2.08s-0.74-1.31-1.06-1.84c-0.31-0.52-0.94-1.52-1.4-2.2-0.45-0.69-1.15-1.71-1.56-2.26-0.4-0.55-1.04-1.4-1.42-1.88s-0.95-1.17-1.26-1.55c-0.31-0.37-0.91-1.05-1.33-1.52-0.41-0.46-1.24-1.33-1.83-1.94-0.59-0.6-1.5-1.48-2.03-1.97s-1.25-1.14-1.6-1.45c-0.36-0.3-1.15-0.95-1.75-1.44-0.61-0.48-1.54-1.2-2.09-1.6-0.54-0.39-1.57-1.1-2.28-1.57-0.71-0.48-1.7-1.1-2.2-1.4-0.49-0.3-1.29-0.76-1.77-1.02-0.48-0.27-1.45-0.78-2.15-1.14-0.71-0.35-1.77-0.86-2.37-1.13-0.6-0.26-1.55-0.67-2.11-0.9-0.57-0.22-1.56-0.6-2.2-0.83-0.65-0.23-1.54-0.54-1.99-0.68s-1.18-0.35-1.61-0.48c-0.43-0.12-1.31-0.35-1.95-0.51-0.63-0.16-1.62-0.39-2.19-0.51-0.58-0.12-1.58-0.31-2.23-0.42-0.65-0.1-1.68-0.26-2.28-0.33-0.61-0.08-1.53-0.18-2.06-0.23s-1.34-0.11-1.8-0.15c-0.47-0.03-1.86-0.07-3.1-0.08zm17.78 34.36c0.08 0 0.24 0.02 0.35 0.05 0.12 0.03 0.29 0.13 0.38 0.21 0.1 0.08 0.24 0.26 0.31 0.4 0.07 0.15 0.31 0.71 0.54 1.25 0.22 0.54 0.62 1.52 0.88 2.17 0.25 0.65 0.63 1.65 0.83 2.22 0.21 0.56 0.49 1.41 0.63 1.87 0.14 0.47 0.3 1.1 0.36 1.4 0.07 0.31 0.12 0.72 0.12 0.93s-0.04 0.57-0.09 0.81-0.17 0.62-0.26 0.84-0.27 0.55-0.4 0.73c-0.12 0.18-0.34 0.45-0.49 0.6-0.14 0.15-0.41 0.39-0.6 0.52-0.19 0.14-0.51 0.33-0.71 0.42s-0.53 0.2-0.72 0.25c-0.2 0.06-0.58 0.11-0.84 0.13-0.27 0.02-0.67 0-0.9-0.04-0.23-0.03-0.64-0.14-0.91-0.24-0.26-0.1-0.63-0.29-0.82-0.41-0.18-0.12-0.5-0.39-0.7-0.59-0.21-0.2-0.47-0.52-0.59-0.71-0.13-0.18-0.31-0.55-0.41-0.81-0.1-0.27-0.21-0.67-0.24-0.9-0.04-0.26-0.06-0.61-0.04-0.88 0.02-0.25 0.11-0.75 0.2-1.11 0.1-0.37 0.32-1.1 0.49-1.64 0.18-0.53 0.47-1.37 0.65-1.86s0.56-1.45 0.83-2.14c0.28-0.69 0.66-1.63 0.86-2.1 0.26-0.63 0.4-0.89 0.56-1.04 0.11-0.11 0.29-0.23 0.4-0.27 0.1-0.03 0.25-0.06 0.33-0.06zm-25.7 13.41c0.08 0 0.24 0.02 0.35 0.06 0.12 0.03 0.29 0.12 0.38 0.2 0.1 0.08 0.24 0.26 0.31 0.41 0.07 0.14 0.29 0.64 0.48 1.1 0.19 0.47 0.55 1.34 0.79 1.95 0.24 0.6 0.63 1.62 0.86 2.25 0.24 0.64 0.53 1.48 0.66 1.89 0.12 0.4 0.29 1 0.38 1.32 0.13 0.51 0.15 0.7 0.15 1.36 0 0.67-0.02 0.81-0.15 1.21-0.08 0.24-0.25 0.63-0.38 0.86-0.12 0.22-0.38 0.57-0.58 0.78-0.19 0.2-0.5 0.48-0.69 0.62s-0.51 0.32-0.71 0.41-0.52 0.21-0.72 0.26-0.58 0.1-0.84 0.12c-0.27 0.02-0.67 0-0.9-0.03-0.23-0.04-0.64-0.15-0.9-0.25-0.27-0.1-0.68-0.31-0.9-0.46-0.23-0.15-0.56-0.43-0.74-0.63-0.19-0.2-0.44-0.53-0.57-0.75-0.13-0.21-0.3-0.57-0.37-0.8-0.08-0.22-0.17-0.63-0.21-0.9-0.05-0.38-0.05-0.61 0.01-0.98 0.04-0.26 0.13-0.73 0.21-1.03s0.27-0.94 0.43-1.42c0.15-0.48 0.44-1.31 0.64-1.83 0.19-0.53 0.58-1.53 0.85-2.23 0.28-0.7 0.67-1.65 0.87-2.11 0.21-0.5 0.42-0.92 0.53-1.03 0.09-0.11 0.27-0.23 0.39-0.27 0.13-0.04 0.29-0.08 0.37-0.08zm41.43 9.75c0.23 0 0.7 0.02 1.04 0.06 0.34 0.03 0.91 0.12 1.26 0.2s0.86 0.22 1.13 0.31c0.26 0.09 0.78 0.31 1.16 0.49 0.37 0.19 0.89 0.48 1.16 0.66 0.27 0.19 0.72 0.53 1 0.77 0.29 0.24 0.72 0.67 0.97 0.96s0.61 0.76 0.81 1.05c0.2 0.3 0.5 0.82 0.67 1.16s0.4 0.89 0.51 1.22 0.25 0.83 0.31 1.12c0.06 0.3 0.14 0.76 0.17 1.04s0.06 0.79 0.06 1.14-0.04 0.92-0.08 1.27c-0.05 0.36-0.15 0.89-0.22 1.18-0.08 0.29-0.23 0.78-0.35 1.09-0.11 0.31-0.29 0.73-0.4 0.94s-0.29 0.56-0.42 0.76c-0.13 0.21-0.38 0.57-0.55 0.8-0.17 0.24-0.54 0.66-0.82 0.96-0.28 0.29-0.71 0.69-0.96 0.89s-0.68 0.5-0.96 0.68c-0.28 0.17-0.76 0.43-1.07 0.58s-0.84 0.36-1.19 0.47c-0.34 0.1-0.81 0.23-1.04 0.28s-0.64 0.11-0.9 0.15c-0.26 0.03-0.78 0.06-1.15 0.06-0.38 0-0.9-0.03-1.16-0.06-0.27-0.04-0.72-0.11-1-0.17-0.29-0.06-0.79-0.2-1.11-0.31-0.32-0.1-0.85-0.32-1.17-0.47s-0.81-0.43-1.09-0.61c-0.28-0.19-0.66-0.46-0.84-0.61-0.19-0.15-0.49-0.41-0.67-0.58-0.19-0.18-0.53-0.55-0.76-0.83s-0.56-0.72-0.73-0.97c-0.16-0.25-0.45-0.77-0.63-1.15-0.18-0.39-0.41-0.93-0.5-1.22-0.1-0.29-0.23-0.78-0.29-1.08-0.06-0.29-0.14-0.89-0.18-1.31-0.05-0.6-0.05-0.96-0.01-1.54 0.04-0.42 0.14-1.06 0.22-1.42s0.22-0.87 0.31-1.14c0.1-0.27 0.31-0.77 0.47-1.11 0.17-0.35 0.49-0.89 0.7-1.21 0.22-0.32 0.6-0.81 0.85-1.09s0.63-0.67 0.86-0.86c0.23-0.2 0.64-0.52 0.92-0.72s0.84-0.53 1.24-0.73 1-0.46 1.34-0.57c0.33-0.11 0.85-0.24 1.16-0.31 0.3-0.06 0.77-0.13 1.03-0.16s0.66-0.05 0.9-0.06zm0.42 4.6c-0.22-0.01-0.6 0-0.86 0.02-0.25 0.03-0.66 0.1-0.9 0.17-0.24 0.06-0.67 0.23-0.94 0.36-0.28 0.13-0.72 0.4-0.97 0.59-0.26 0.19-0.6 0.51-0.77 0.7s-0.38 0.46-0.47 0.6c-0.1 0.14-0.26 0.43-0.37 0.65s-0.25 0.56-0.32 0.76c-0.06 0.2-0.14 0.51-0.17 0.68s-0.07 0.47-0.09 0.68c-0.02 0.2-0.01 0.6 0.03 0.9 0.03 0.29 0.1 0.68 0.15 0.87s0.17 0.53 0.27 0.76c0.1 0.24 0.29 0.61 0.43 0.82 0.14 0.22 0.42 0.57 0.61 0.78 0.2 0.21 0.52 0.5 0.73 0.66 0.2 0.15 0.56 0.37 0.79 0.5 0.24 0.12 0.63 0.28 0.88 0.36s0.67 0.17 0.93 0.21c0.28 0.04 0.69 0.05 1.04 0.03 0.31-0.02 0.78-0.08 1.04-0.15 0.26-0.06 0.72-0.23 1.01-0.36 0.29-0.14 0.68-0.37 0.87-0.5 0.19-0.14 0.54-0.45 0.78-0.7 0.23-0.24 0.5-0.55 0.59-0.69 0.1-0.14 0.27-0.43 0.37-0.65 0.11-0.22 0.27-0.6 0.34-0.85 0.08-0.25 0.18-0.65 0.21-0.89s0.06-0.6 0.06-0.79-0.04-0.59-0.09-0.88c-0.05-0.3-0.17-0.76-0.28-1.03-0.1-0.27-0.3-0.69-0.45-0.94s-0.44-0.64-0.64-0.86c-0.21-0.22-0.56-0.55-0.8-0.72-0.23-0.17-0.61-0.4-0.84-0.52-0.23-0.11-0.59-0.26-0.79-0.32s-0.5-0.14-0.67-0.17-0.49-0.06-0.71-0.08zm-26.91 10.62c0.14 0 0.36 0.04 0.48 0.1 0.13 0.06 0.31 0.19 0.39 0.3 0.09 0.11 0.41 0.8 0.72 1.54 0.3 0.74 0.78 1.93 1.05 2.65 0.28 0.71 0.61 1.6 0.74 1.97s0.35 1.03 0.49 1.47c0.13 0.43 0.31 1.1 0.39 1.49 0.12 0.56 0.14 0.8 0.12 1.16-0.02 0.25-0.08 0.62-0.13 0.82s-0.19 0.56-0.3 0.81c-0.12 0.25-0.36 0.63-0.53 0.84-0.17 0.22-0.44 0.5-0.6 0.62-0.16 0.13-0.44 0.32-0.64 0.44-0.19 0.12-0.55 0.28-0.8 0.36s-0.65 0.17-0.9 0.2c-0.31 0.04-0.6 0.03-0.95-0.01-0.28-0.03-0.66-0.11-0.85-0.18-0.19-0.06-0.51-0.2-0.71-0.3-0.2-0.11-0.51-0.31-0.69-0.45s-0.46-0.42-0.63-0.63c-0.17-0.2-0.4-0.54-0.5-0.74-0.11-0.21-0.26-0.57-0.33-0.8-0.11-0.36-0.13-0.54-0.13-1.18 0-0.65 0.02-0.85 0.16-1.36 0.08-0.32 0.26-0.92 0.38-1.32 0.13-0.4 0.47-1.37 0.75-2.14 0.29-0.78 0.75-1.94 1.01-2.59 0.26-0.66 0.61-1.49 0.76-1.86 0.16-0.37 0.34-0.74 0.4-0.82 0.06-0.09 0.22-0.21 0.35-0.28 0.14-0.07 0.35-0.12 0.5-0.11zm-168.67 126.95c-11.59 0-22.21 2.93-31.85 8.78-9.54 5.74-17.07 13.59-22.59 23.56-5.53 9.86-8.29 20.75-8.29 32.67 0 12.02 2.76 23.02 8.29 32.99 5.52 9.96 13.05 17.82 22.59 23.56 9.64 5.74 20.26 8.61 31.85 8.61 14.84 0 28.11-4.71 39.81-14.13 1.74-1.74 2.6-3.74 2.6-6.02 0-2.38-0.7-4.28-2.11-5.69-1.3-1.51-2.98-2.27-5.04-2.27-1.73 0-3.52 0.65-5.36 1.95-9.53 7.15-19.5 10.72-29.9 10.72-8.45 0-16.25-2.22-23.4-6.66-7.04-4.44-12.68-10.45-16.9-18.04-4.12-7.58-6.18-15.92-6.18-25.02 0-9 2.06-17.28 6.18-24.87 4.22-7.69 9.86-13.76 16.9-18.2 7.15-4.44 14.95-6.66 23.4-6.66 6.72 0 12.19 0.87 16.41 2.6 4.23 1.62 8.56 4.33 13 8.12 1.74 1.41 3.63 2.12 5.69 2.12s3.85-0.71 5.36-2.12c1.63-1.4 2.44-3.19 2.44-5.36 0-1.41-0.21-2.6-0.65-3.57-0.43-1.09-1.3-2.12-2.6-3.09-6.17-4.98-12.3-8.56-18.36-10.73-5.96-2.16-13.06-3.25-21.29-3.25zm72.7 1.63c-2.39 0-4.34 0.76-5.85 2.27-1.52 1.52-2.28 3.47-2.28 5.85v88.73c0 5.75 1.03 10.95 3.09 15.6 2.06 4.55 4.93 8.13 8.61 10.73 3.79 2.49 8.02 3.74 12.68 3.74h0.32c3.25 0 5.91-0.76 7.97-2.28 2.06-1.51 3.08-3.46 3.08-5.85 0-2.38-0.7-4.33-2.11-5.85-1.3-1.51-3.03-2.27-5.2-2.27h-4.06c-2.39 0-4.34-1.3-5.85-3.9-1.52-2.6-2.28-5.91-2.28-9.92v-88.73c0-2.38-0.76-4.33-2.27-5.85-1.52-1.51-3.47-2.27-5.85-2.27zm141.52 2.11c-2.93 0-5.47 1.08-7.64 3.25-2.06 2.06-3.09 4.55-3.09 7.48 0 2.92 1.03 5.47 3.09 7.63 2.17 2.06 4.71 3.09 7.64 3.09 2.92 0 5.42-1.03 7.47-3.09 2.17-2.16 3.25-4.71 3.25-7.63 0-2.93-1.08-5.42-3.25-7.48-2.05-2.17-4.55-3.25-7.47-3.25zm83.49 35.1c-5.42 0-10.51 0.98-15.28 2.93-4.77 1.84-8.88 4.49-12.35 7.96v-1.79c0-2.49-0.76-4.49-2.28-6.01-1.51-1.52-3.52-2.28-6.01-2.28-2.38 0-4.39 0.76-6.01 2.28-1.52 1.52-2.28 3.52-2.28 6.01v72.48c0 2.39 0.76 4.39 2.28 6.02 1.62 1.51 3.63 2.27 6.01 2.27 2.49 0 4.5-0.76 6.01-2.27 1.52-1.63 2.28-3.63 2.28-6.02v-45.82c0-3.9 1.03-7.43 3.09-10.57 2.16-3.14 5.09-5.63 8.77-7.47 3.79-1.84 7.97-2.77 12.52-2.77 7.8 0 14.03 2.28 18.69 6.83 4.76 4.44 7.15 11.05 7.15 19.83v39.97c0 2.39 0.75 4.39 2.27 6.02 1.63 1.51 3.63 2.27 6.01 2.27 2.39 0 4.34-0.76 5.85-2.27 1.63-1.63 2.44-3.63 2.44-6.02v-39.97c0-8.78-1.68-16.25-5.04-22.43-3.36-6.28-8.01-11.05-13.97-14.3s-12.68-4.88-20.15-4.88zm106.87 0.17c-8.67 0-16.41 1.95-23.24 5.85-6.83 3.79-12.13 9.1-15.93 15.92-3.79 6.83-5.68 14.63-5.68 23.4 0 8.67 1.73 16.42 5.2 23.24 3.57 6.83 8.5 12.19 14.79 16.09 6.39 3.79 13.59 5.69 21.61 5.69 6.93 0 13.16-1.68 18.69-5.04 5.52-3.36 9.97-8.02 13.32-13.97v7.96c0 6.82-1.3 12.67-3.9 17.55-2.6 4.98-6.06 8.72-10.4 11.21-4.33 2.6-9.15 3.9-14.46 3.9-5.63 0-10.67-1.03-15.11-3.09-4.45-1.95-8.13-4.82-11.06-8.61-1.73-2.27-3.95-3.41-6.66-3.41-1.51 0-3.03 0.49-4.55 1.46-2.27 1.63-3.41 3.58-3.41 5.85 0 1.52 0.59 3.04 1.79 4.55 4.55 5.74 10.18 10.13 16.9 13.16 6.72 3.15 13.97 4.72 21.77 4.72 8.67 0 16.42-2.06 23.24-6.18 6.94-4 12.3-9.53 16.09-16.57s5.69-14.85 5.69-23.4v-35.11c0-8.77-1.95-16.57-5.85-23.4-3.79-6.82-9.1-12.13-15.93-15.92-6.71-3.9-14.35-5.85-22.91-5.85zm-292.92 0.64c-1.19 0-2.27 0.22-3.25 0.66-1.4 0.65-2.54 1.57-3.41 2.76s-1.3 2.49-1.3 3.9c0 1.3 0.27 2.44 0.81 3.41l36.57 69.39-16.25 36.57c-0.65 1.3-0.98 2.6-0.98 3.9 0 2.82 1.63 4.93 4.88 6.34 1.51 0.65 2.81 0.97 3.9 0.97 2.92 0 5.04-1.68 6.34-5.04l49.72-111.8c0.65-1.52 0.98-2.82 0.98-3.9 0-2.93-1.68-5.04-5.04-6.34-1.19-0.54-2.49-0.82-3.9-0.82-2.82 0-4.93 1.58-6.34 4.72l-26.16 58.99-29.74-59.15c-1.52-3.04-3.79-4.56-6.83-4.56zm102.56 0c-2.38 0-4.39 0.76-6.01 2.28-1.52 1.52-2.28 3.52-2.28 6.01v72.32c0 2.38 0.76 4.39 2.28 6.01 1.62 1.52 3.63 2.28 6.01 2.28 2.49 0 4.49-0.76 6.01-2.28 1.52-1.62 2.28-3.63 2.28-6.01v-72.32c0-2.49-0.76-4.49-2.28-6.01s-3.52-2.28-6.01-2.28zm190.36 13.98c5.53 0 10.45 1.3 14.79 3.9 4.44 2.6 7.85 6.23 10.24 10.89 2.49 4.66 3.73 9.91 3.73 15.76s-1.24 11.11-3.73 15.77c-2.39 4.55-5.8 8.12-10.24 10.72-4.34 2.6-9.26 3.9-14.79 3.9-5.52 0-10.51-1.3-14.95-3.9-4.33-2.6-7.75-6.17-10.24-10.72-2.49-4.66-3.74-9.92-3.74-15.77s1.25-11.1 3.74-15.76 5.91-8.29 10.24-10.89c4.44-2.6 9.43-3.9 14.95-3.9z" /></svg>